<svg width="46" height="46" viewBox="0 0 46 46" fill="none" xmlns="http://www.w3.org/2000/svg">
<path fill-rule="evenodd" clip-rule="evenodd" d="M0.5 8C0.5 6.01088 1.29018 4.10322 2.6967 2.6967C4.10322 1.29018 6.01088 0.5 8 0.5H38C39.9891 0.5 41.8968 1.29018 43.3033 2.6967C44.7098 4.10322 45.5 6.01088 45.5 8V38C45.5 39.9891 44.7098 41.8968 43.3033 43.3033C41.8968 44.7098 39.9891 45.5 38 45.5H8C6.01088 45.5 4.10322 44.7098 2.6967 43.3033C1.29018 41.8968 0.5 39.9891 0.5 38V8ZM25.5 13C25.5 12.337 25.2366 11.7011 24.7678 11.2322C24.2989 10.7634 23.663 10.5 23 10.5C22.337 10.5 21.7011 10.7634 21.2322 11.2322C20.7634 11.7011 20.5 12.337 20.5 13V33C20.5 33.663 20.7634 34.2989 21.2322 34.7678C21.7011 35.2366 22.337 35.5 23 35.5C23.663 35.5 24.2989 35.2366 24.7678 34.7678C25.2366 34.2989 25.5 33.663 25.5 33V13ZM15.5 20.5C15.5 19.837 15.2366 19.2011 14.7678 18.7322C14.2989 18.2634 13.663 18 13 18C12.337 18 11.7011 18.2634 11.2322 18.7322C10.7634 19.2011 10.5 19.837 10.5 20.5V33C10.5 33.663 10.7634 34.2989 11.2322 34.7678C11.7011 35.2366 12.337 35.5 13 35.5C13.663 35.5 14.2989 35.2366 14.7678 34.7678C15.2366 34.2989 15.5 33.663 15.5 33V20.5ZM35.5 28C35.5 27.337 35.2366 26.7011 34.7678 26.2322C34.2989 25.7634 33.663 25.5 33 25.5C32.337 25.5 31.7011 25.7634 31.2322 26.2322C30.7634 26.7011 30.5 27.337 30.5 28V33C30.5 33.663 30.7634 34.2989 31.2322 34.7678C31.7011 35.2366 32.337 35.5 33 35.5C33.663 35.5 34.2989 35.2366 34.7678 34.7678C35.2366 34.2989 35.5 33.663 35.5 33V28Z" fill="#6094FF"/>
</svg>
